<?xml version="1.0" encoding="UTF-8"?>
<!DOCTYPE svg PUBLIC "-//W3C//DTD SVG 1.1//EN" "http://www.w3.org/Graphics/SVG/1.1/DTD/svg11.dtd">
<!-- Creator: CorelDRAW 2020 (64-Bit) -->
<svg xmlns="http://www.w3.org/2000/svg" xml:space="preserve" width="210mm" height="297mm" version="1.1" style="shape-rendering:geometricPrecision; text-rendering:geometricPrecision; image-rendering:optimizeQuality; fill-rule:evenodd; clip-rule:evenodd"
viewBox="0 0 21000 29700"
 xmlns:xlink="http://www.w3.org/1999/xlink"
 xmlns:xodm="http://www.corel.com/coreldraw/odm/2003">
 <defs>
  <style type="text/css">
   <![CDATA[
    .fil1 {fill:#5B5B5B;fill-rule:nonzero}
    .fil0 {fill:#00A0E3;fill-rule:nonzero}
   ]]>
  </style>
 </defs>
 <g id="Слой_x0020_1">
  <metadata id="CorelCorpID_0Corel-Layer"/>
  <polygon class="fil0" points="18446.34,16774.8 18223.13,16774.8 18223.13,16560.39 18446.34,16560.39 "/>
  <polygon class="fil0" points="2959.32,17533.39 4550.58,14470.22 2996.05,14470.22 2996.05,13096.23 7013.97,13096.23 4770.91,17533.39 "/>
  <path class="fil1" d="M6109.2 16282.73l0 -336.51 751.51 0 0 -457.22 -661.21 0 -650.02 1285.8 1489.28 0 0 -492.07 -929.56 0zm481.43 -1567.72l-240.2 475.25 688.33 0 0 -475.25 -448.13 0z"/>
  <polygon class="fil1" points="8422.6,15670.3 9021.31,14714.99 8453.69,14714.99 8121.97,15269.23 7802.44,14714.99 7064.86,14714.99 7701.31,15711.15 7038.75,16773.1 7037.72,16774.81 7616.33,16774.81 8000.24,16126.15 8380.72,16774.81 9116.42,16774.81 "/>
  <path class="fil1" d="M10066.05 15584.11l-211.34 0 0 -398.33 232.47 0c172.03,0 258.05,64.39 258.05,193.16 0,136.84 -93.06,205.17 -279.18,205.17zm807.98 -562.81c-66.95,-103.69 -157.42,-180.62 -271.62,-230.93 -114.16,-50.31 -280.88,-75.38 -500.12,-75.38l-879.76 0 0 2059.81 641.27 0 0 -748.57 357.64 0c228.36,0 410.86,-60.27 547.69,-180.97 136.86,-120.87 205.36,-279.17 205.36,-475.44 0,-128.74 -33.49,-244.98 -100.46,-348.52z"/>
  <polygon class="fil1" points="12728.68,15190.24 12728.68,14715 11178.98,14715 11178.98,16774.81 12728.68,16774.81 12728.68,16282.72 11799.12,16282.72 11799.12,15946.21 12550.64,15946.21 12550.64,15488.98 11799.12,15488.98 11799.12,15190.24 "/>
  <path class="fil1" d="M14042.32 15496.55c-48.25,33.3 -112.13,49.78 -191.63,49.78l-270.05 0 0 -393.85 291.18 0c161.9,0 242.94,65.92 242.94,197.78 0,64.39 -24.2,113.16 -72.44,146.29zm366.73 380.3c146.79,-69.36 244.5,-149.54 292.74,-240.73 48.25,-90.99 72.45,-195.9 72.45,-314.52 0,-182.18 -65.59,-328.81 -196.94,-439.9 -131.34,-111.26 -315.74,-166.69 -553.01,-166.69l-1076.01 0 0 2059.79 632.36 0 0 -787.73 199.32 0 300.8 787.73 701.03 0 -372.74 -897.95z"/>
  <polygon class="fil1" points="14888.25,14715 14888.25,15208.43 15315.25,15208.43 15315.25,16774.81 15914.29,16774.81 15914.29,15208.43 16341.46,15208.43 16341.46,14715 "/>
  <path class="fil1" d="M18065.61 15762.16c-69.36,-97.02 -155.89,-165.68 -259.59,-205.86 -103.7,-40.02 -278.67,-86.19 -525.22,-138.21 -89.63,-19.06 -149.9,-39.15 -181.13,-60.27 -31.09,-21.12 -46.7,-50.82 -46.7,-89.1 0,-85.51 68.84,-128.27 206.7,-128.27 166.05,0 276.1,68.87 330.53,206.74l523.49 -158.5c-134.79,-337.01 -411.9,-505.46 -831.35,-505.46 -276.77,0 -488.82,64.39 -636.12,193.16 -147.32,128.94 -221.14,290.34 -221.14,484.51 0,151.1 51.35,282.28 154.01,394.04 102.5,111.79 334.45,202.09 695.69,271.45 94.44,19.06 160.2,40.86 196.94,65.59 36.74,24.54 55.12,59.07 55.12,103.37 0,84.47 -79.5,126.7 -238.49,126.7 -204.32,0 -331.02,-83.1 -380.3,-248.95l-587.01 105.6c117.78,418.58 427.51,627.69 929.54,627.69 274.7,0 496.54,-64.72 665.49,-194 168.94,-129.3 253.58,-298.23 253.58,-506.67 0,-131.87 -34.67,-246.38 -104.04,-343.56z"/>
 </g>
</svg>
